<svg width="412" height="186" viewBox="0 0 412 186" fill="none" xmlns="http://www.w3.org/2000/svg">
<path d="M371.047 166.159C364.52 166.159 359.057 163.182 354.915 160.046C350.772 156.91 347.469 150.764 347.469 143.866L350.499 130.696H353.512L356.337 143.866C356.337 149.385 356.364 153.398 359.878 156.283C363.519 159.043 367.446 158.719 373.095 158.719C378.994 158.719 383.325 158.792 386.84 156.283C390.481 153.775 390.902 149.636 390.902 143.866V136.717C390.902 131.95 389.413 129.113 387.403 126.479C385.395 123.719 384.112 123.149 380.975 121.519C377.962 119.763 374.561 116.824 371.047 115.319C367.155 113.563 363.142 112.115 359.878 110.359C356.615 108.603 355.145 104.984 353.135 102.475C351.254 99.8413 350.313 96.4549 350.313 92.3158V85.9191C350.313 80.6511 352.321 76.2612 356.337 72.7493C360.355 69.2374 365.133 65.7188 372.288 65.7188C378.815 65.7188 385.519 67.6685 389.662 70.6788C393.93 73.5635 396.71 79.146 396.71 85.9191L395.501 98.7124H392.488L390.902 85.9191C390.902 79.8984 390.57 78.2728 387.18 75.6388C383.916 72.8793 379.371 71.9966 373.095 71.9966C366.818 71.9966 363.393 73.743 359.878 76.8788C356.488 80.0145 354.478 82.4697 354.478 87.6122L354.915 90.5188C354.915 94.6579 356.503 97.9302 358.637 100.439C360.772 102.947 363.07 105.008 366.083 106.639C369.096 108.144 372.134 109.104 374.77 110.359C378.535 111.989 382.548 113.312 385.939 115.319C389.453 117.2 392.491 120.863 394.625 123.999C396.884 127.009 398.348 131.449 398.348 136.717V143.866C398.348 148.758 398.016 154.699 394.625 156.283C392.491 159.043 388.088 162.424 384.698 163.679C381.307 164.808 375.063 166.159 371.047 166.159Z" fill="#142934"/>
<path d="M332.839 161.927V68.7977L337.331 68.3409V161.927H332.839ZM334.345 55.4399C332.586 55.4399 331.707 54.562 331.707 52.8059C331.707 51.05 332.586 50.1719 334.345 50.1719C336.103 50.1719 336.981 51.05 336.981 52.8059C336.981 54.562 336.103 55.4399 334.345 55.4399Z" fill="#142934"/>
<path d="M296.181 163.252C290.783 163.252 286.517 162.562 283.377 161.182C280.367 159.677 278.168 157.733 276.788 155.35C275.408 152.967 274.529 150.333 274.152 147.448C273.775 144.438 273.586 141.49 273.586 138.606V91.947C273.586 89.0623 273.775 86.1775 274.152 83.2926C274.529 80.4078 275.408 77.7738 276.788 75.3908C278.168 72.8823 280.367 70.9382 283.377 69.5586C286.517 68.0532 290.783 67.3008 296.181 67.3008C301.453 67.3008 305.595 68.0532 308.608 69.5586C311.746 70.9382 314.007 72.8823 315.387 75.3908C316.767 77.7738 317.645 80.4078 318.022 83.2926C318.4 86.1775 318.588 89.0623 318.588 91.947V100.225H315.575V92.5115C315.575 89.125 315.198 85.7383 314.446 82.3519C313.818 78.9655 312.123 76.1432 309.36 73.8857C306.725 71.5026 302.332 70.311 296.181 70.311C290.031 70.311 285.574 71.5026 282.814 73.8857C280.051 76.1432 278.294 78.9655 277.542 82.3519C276.914 85.7383 276.599 89.125 276.599 92.5115V138.041C276.599 141.303 276.914 144.689 277.542 148.201C278.294 151.587 280.051 154.472 282.814 156.855C285.574 159.113 290.031 160.242 296.181 160.242C302.332 160.242 306.725 159.113 309.36 156.855C312.123 154.472 313.818 151.587 314.446 148.201C315.198 144.689 315.575 141.303 315.575 138.041V130.516V132.288L315 139C315 142.888 317.255 146.737 316.5 150.5C315.748 154.263 314.759 156.981 311.621 159.489C308.482 161.998 303.337 163.252 296.181 163.252Z" fill="#142934"/>
<path d="M214.02 161.935V68.8059H216.658L217.033 78.5892C218.415 75.7043 220.674 73.133 223.811 70.8755C227.074 68.4924 231.656 67.3008 237.556 67.3008C242.827 67.3008 246.97 68.0532 249.983 69.5586C253.122 70.9382 255.381 72.8823 256.761 75.3908C258.143 77.7738 259.022 80.4078 259.397 83.2926C259.774 86.1775 259.962 89.0623 259.962 91.947V161.935H256.949V93.6404C256.949 89.8775 256.637 86.24 256.009 82.7281C255.381 79.0909 253.686 76.1432 250.926 73.8857C248.287 71.5026 243.832 70.311 237.556 70.311C230.653 70.311 225.506 72.1923 222.118 75.9552C218.728 79.7179 217.033 84.296 217.033 89.6895V161.935H214.02Z" fill="#142934"/>
<path d="M174.432 162.683C171.545 162.683 168.532 162.181 165.393 161.178C162.382 160.175 159.808 158.168 157.674 155.158C155.539 152.022 158.5 147.256 158.5 140.859L157.518 134.5C157.518 130.486 155.351 126.937 157.108 123.926C158.992 120.916 161.188 118.408 163.7 116.401C166.336 114.269 168.845 112.575 171.23 111.321C173.742 109.941 175.561 108.938 176.69 108.311C181.711 105.551 185.603 103.168 188.365 101.162C191.252 99.0292 193.322 96.8969 194.578 94.7646C195.834 92.5071 196.462 89.8103 196.462 86.6746V84.0409C196.462 79.7763 195.518 76.7033 193.637 74.822C191.88 72.9406 189.619 71.749 186.859 71.2473C184.097 70.7456 181.272 70.4946 178.386 70.4946C172.863 70.4946 168.721 71.4355 165.959 73.3168C163.323 75.1982 161.566 77.7067 160.687 80.8424C159.932 83.9781 159.558 87.49 159.558 91.3782V99.0947L155.125 99.3467V91.3782C155.125 84.4171 156.669 77.0029 159.558 72.864C162.444 68.5994 169.6 67.4844 178.386 67.4844C185.164 67.4844 189.996 68.3625 192.883 70.1184C195.896 71.8745 197.715 74.1948 198.343 77.0795C199.097 79.839 199.475 82.912 199.475 86.2984V161.93L196 162L196.65 148.196C195.144 152.586 192.443 156.098 188.552 158.732C184.787 161.366 180.081 162.683 174.432 162.683ZM174.995 159.673C180.52 159.673 184.787 158.481 187.8 156.098C190.937 153.715 193.133 150.454 194.389 146.315C195.772 142.176 196.462 137.535 196.462 132.393V97.7749C194.451 100.534 191.691 102.98 188.177 105.112C184.787 107.119 181.272 109.189 177.631 111.321C174.494 113.077 171.357 114.958 168.217 116.965C165.204 118.847 162.633 121.292 160.498 124.303C158.49 127.313 157.485 131.201 157.485 135.967V140.859C157.485 146.754 158.426 151.018 160.31 153.652C162.194 156.286 164.514 157.98 167.277 158.732C170.039 159.359 172.61 159.673 174.995 159.673Z" fill="#142934"/>
<path d="M137.824 161.782V43.2539H140.837V161.782H137.824Z" fill="#142934"/>
<path d="M98.5739 164.918C95.6877 164.918 91.2482 163.538 88.1101 162.535C85.0975 161.531 82.2565 158.008 80.1227 154.998C77.9888 151.863 76.9414 147.755 76.9414 141.358V135.158C76.9414 131.145 77.6659 125.768 79.4233 122.758C81.3061 119.748 83.1177 117.325 85.6282 115.318C88.2642 113.186 90.6891 111.613 93.0739 110.358C95.5844 108.979 98.1495 107.265 99.2788 106.638C104.3 103.879 107.685 102.445 110.447 100.438C113.334 98.3059 115.208 96.3705 116.461 94.2382C117.717 91.9804 117.893 89.9339 117.893 86.7982L118.156 84.3182C118.156 80.0536 117.295 77.5196 115.411 75.6382C113.654 73.7569 113.21 72.4199 110.447 71.9182C107.685 71.4165 104.647 71.9182 101.761 71.9182C96.2376 71.9182 92.2983 71.2871 89.5369 73.1684C86.9009 75.0497 85.1437 77.5582 84.2648 80.694C83.5118 83.8297 83.1353 87.3416 83.1353 91.2297V98.9435H80.1227V90.8535C80.1227 83.5787 81.5662 77.872 84.4532 73.7328C87.3402 69.4682 93.1772 67.3359 101.964 67.3359C108.742 67.3359 113.575 68.2141 116.461 69.9699C119.474 71.726 121.293 74.0463 121.921 76.9311C122.676 79.6906 124.098 82.1718 124.098 85.5582V163.678H120.04L119.134 162.535C117.628 166.925 118.062 157.324 114.17 159.958C110.405 162.592 104.223 164.918 98.5739 164.918ZM99.2788 157.478C104.801 157.478 106.193 157.381 109.206 154.998C112.344 152.615 115.208 149.217 116.461 145.078C117.844 140.939 120.04 137.387 120.04 132.244V97.6264C118.03 100.386 116.444 103.266 112.929 105.398C109.539 107.405 105.402 110.706 101.761 112.838C98.6235 114.594 94.9344 114.81 91.7962 116.817C88.7837 118.698 87.7621 122.228 85.6282 125.238C83.6198 128.248 83.1353 131.632 83.1353 136.398V140.71C83.1353 146.606 83.7454 149.884 85.6282 152.518C87.5109 155.152 89.0713 156.726 91.833 157.478C94.5946 158.105 96.8936 157.478 99.2788 157.478Z" fill="#142934"/>
<path d="M49.459 161.788L25.5469 50.5977H28.5594L50.7772 153.51L65.7715 75.64L70.7353 74.4L51.9069 161.788H49.459Z" fill="#142934"/>
<path d="M335.847 70.2394C335.847 69.4451 335.205 68.801 334.408 68.801H334.276C333.48 68.801 332.837 69.4451 332.837 70.2394V160.492C332.837 161.287 333.48 161.931 334.276 161.931H334.408C335.205 161.931 335.847 161.287 335.847 160.492V70.2394ZM337.126 52.2113C337.046 51.9757 336.915 51.7044 336.726 51.4234C336.686 51.3647 336.649 51.3039 336.614 51.2424C336.441 50.9398 336.205 50.7057 335.9 50.5331C335.838 50.4976 335.776 50.4609 335.716 50.4208C335.438 50.2355 335.172 50.1058 334.939 50.0282C334.577 49.9076 334.346 49.9094 334.338 49.9094C334.321 49.9094 334.095 49.9121 333.745 50.0282C333.509 50.1063 333.236 50.234 332.956 50.4215C332.896 50.4609 332.837 50.4976 332.775 50.5329C332.472 50.7057 332.234 50.9401 332.06 51.2421C332.023 51.3036 331.988 51.3647 331.948 51.4239C331.762 51.7037 331.638 51.9772 331.559 52.2113C331.494 52.407 331.464 52.5647 331.452 52.6694C331.44 52.7634 331.449 52.8581 331.469 52.9509L331.559 53.4057C331.638 53.6386 331.762 53.9089 331.948 54.1869C331.988 54.2467 332.023 54.3084 332.06 54.3707C332.234 54.6747 332.47 54.9103 332.775 55.0842C332.837 55.1194 332.896 55.1561 332.956 55.1955C333.236 55.3832 333.509 55.5105 333.745 55.5888C334.095 55.7051 334.321 55.7076 334.338 55.7076C334.346 55.7076 334.577 55.7094 334.939 55.5888C335.172 55.5112 335.438 55.3818 335.716 55.1963C335.776 55.1561 335.838 55.1194 335.9 55.0839C336.205 54.9105 336.441 54.675 336.614 54.3704C336.649 54.3082 336.686 54.2467 336.726 54.1874C336.915 53.9084 337.046 53.6396 337.126 53.4057L337.188 53.092C337.225 52.9067 337.225 52.7158 337.188 52.5302L337.126 52.2113ZM341.387 166.026C341.387 166.82 340.742 167.464 339.948 167.464H328.737C327.943 167.464 327.297 166.82 327.297 166.026V64.9784C327.297 64.0853 328.104 63.408 328.985 63.5613L340.193 65.5131C340.883 65.6331 341.387 66.231 341.387 66.9301V166.026ZM342.516 52.8112C342.516 54.5415 342.077 56.8541 340.233 58.696C338.389 60.5387 336.071 60.9764 334.338 60.9764C332.606 60.9761 330.293 60.5382 328.449 58.696C326.838 57.0845 326.299 55.1139 326.19 53.4868L326.168 52.8112L326.19 52.1357C326.297 50.5078 326.836 48.5335 328.449 46.921C330.293 45.0798 332.609 44.6409 334.338 44.6406C336.071 44.6406 338.389 45.0783 340.233 46.921C342.077 48.7636 342.516 51.0804 342.516 52.8112Z" fill="#142934"/>
<path d="M140.847 44.7008C140.847 43.9062 140.202 43.2624 139.408 43.2624H139.274C138.479 43.2624 137.834 43.9062 137.834 44.7008V160.351C137.834 161.146 138.479 161.79 139.274 161.79H139.408C140.202 161.79 140.847 161.146 140.847 160.351V44.7008ZM146.384 165.885C146.384 166.679 145.739 167.323 144.945 167.323H133.736C132.94 167.323 132.297 166.679 132.297 165.885V40.2688C132.297 39.1508 133.515 38.4601 134.476 39.0352L145.684 45.7523C146.119 46.0122 146.384 46.4804 146.384 46.9859V165.885Z" fill="#142934"/>
<path d="M24.9978 20.771C25.351 20.9671 25.6054 21.3027 25.6987 21.6955L49.1507 120.365C49.5059 121.858 51.6428 121.831 51.96 120.329L64.0279 63.1613C64.255 62.086 65.5565 61.652 66.3845 62.3759L73.8469 68.9003C74.2289 69.2344 74.4066 69.7445 74.3145 70.2435L56.6382 166.142C56.5126 166.824 55.917 167.32 55.2225 167.32H46.1389C45.4663 167.32 44.8833 166.854 44.7349 166.198L10.6429 15.5369C10.3684 14.3242 11.659 13.3582 12.7465 13.9626L24.9978 20.771ZM27.3338 50.5969C26.417 50.5969 25.7337 51.4419 25.9263 52.3374L49.2167 160.65C49.3592 161.313 49.9457 161.786 50.6242 161.786H50.7319C51.4177 161.786 52.0082 161.303 52.1434 160.631L69.0597 76.5816C69.2384 75.694 68.3167 74.9897 67.5061 75.3947C67.1983 75.5485 66.9816 75.8384 66.9213 76.1769L52.0769 159.609C51.7969 161.182 49.5431 161.194 49.2453 159.625L28.7865 51.7675C28.6577 51.0885 28.0638 50.5969 27.372 50.5969H27.3338Z" fill="#142934"/>
<path d="M101.959 61.8047C108.869 61.8047 114.984 62.6423 119.243 65.1924C123.274 67.5412 126.222 70.9842 127.279 75.5576C128.17 78.8473 128.582 82.3932 128.582 86.1543V124.206C126.345 124.844 124.707 126.902 124.707 129.342V148.926C124.707 151.366 126.345 153.422 128.582 154.061V165.882C128.582 166.676 127.939 167.319 127.143 167.319H116.014C115.279 167.319 114.687 166.725 114.687 165.992C114.687 164.936 113.5 164.289 112.564 164.781C108.271 167.039 103.354 168.071 98.0078 168.071C94.4733 168.071 90.8895 167.457 87.2822 166.304L87.2178 166.282C82.9144 164.849 79.4313 162.021 76.7314 158.214L76.6992 158.171L76.667 158.122C73.613 153.633 72.5081 147.538 72.5078 140.717V134.318C72.5079 129.476 73.5765 124.971 75.8984 120.993L75.9424 120.923L75.9854 120.847C78.1645 117.363 80.7704 114.371 83.8164 111.936C86.6251 109.666 89.3969 107.775 92.1338 106.326C94.6431 104.947 96.4554 103.948 97.5732 103.327L97.5957 103.317C102.512 100.616 106.161 98.3626 108.65 96.5566C111.155 94.7066 112.592 93.1114 113.344 91.8496C114.031 90.5809 114.495 88.8781 114.495 86.5322V83.8955C114.495 80.2487 113.661 78.9557 113.296 78.5889L113.225 78.5244L113.16 78.4541C112.289 77.5226 111.14 76.8547 109.439 76.5459C107.015 76.1055 104.523 75.8818 101.959 75.8818C96.9281 75.8818 94.1068 76.7658 92.6797 77.7246C91.1535 78.8343 90.1707 80.2265 89.6299 82.0635C89.0355 84.5675 88.6975 87.4589 88.6689 90.7705C88.6662 91.0711 88.5727 91.3649 88.3975 91.6094L83.1289 98.9453L79.7812 101.112V83.1953C79.7812 80.8909 78.3209 78.9267 76.2744 78.1777C77.1187 75.4201 78.2991 72.8911 79.8623 70.6348L80.7441 69.4453C85.3772 63.7547 93.2134 61.8047 101.959 61.8047ZM101.959 67.3379C93.1738 67.3379 87.3362 69.4723 84.4492 73.7363C81.5623 77.8752 80.1175 83.5817 80.1172 90.8555V97.5068C80.1172 98.3011 80.7617 98.9453 81.5566 98.9453H83.1289L81.918 91.3467C81.9061 91.2721 81.9002 91.1959 81.9004 91.1201C81.9098 87.2755 82.3948 83.7035 83.1406 80.5986C84.0192 77.4639 86.8972 75.0549 89.5322 73.1738C92.2936 71.2925 96.437 70.3477 101.959 70.3477L104.113 70.3965C106.255 70.4907 108.362 70.728 110.435 71.1045C113.194 71.6064 115.453 72.7962 117.21 74.6768C119.094 76.5578 120.033 79.6314 120.035 83.8955V86.5322C120.033 89.6669 119.407 92.3651 118.151 94.6221C116.898 96.7536 114.822 98.8831 111.938 101.015C109.176 103.021 105.287 105.405 100.267 108.164C99.1374 108.791 97.3154 109.795 94.8057 111.174C92.4208 112.428 89.9075 114.126 87.2715 116.259C84.7623 118.265 82.5668 120.773 80.6846 123.781C78.9275 126.791 78.0459 130.305 78.0459 134.318V140.717L78.0996 143.035C78.3327 148.276 79.3797 152.272 81.2471 155.016C83.3807 158.025 85.9576 160.032 88.9697 161.035C92.1069 162.038 95.1206 162.537 98.0078 162.537C103.654 162.537 108.362 161.221 112.127 158.587C112.754 158.163 113.348 157.713 113.913 157.243C113.378 156.986 112.818 156.708 112.234 156.406C111.728 156.144 111.09 156.191 110.616 156.513C107.66 158.524 103.644 159.527 98.5684 159.527C96.1848 159.527 93.6121 159.214 90.8516 158.587C88.0905 157.834 85.7691 156.141 83.8867 153.508C82.2395 151.203 81.3076 147.652 81.1016 142.852L81.0576 140.717V135.82C81.0579 131.056 82.0632 127.169 84.0703 124.159C86.2042 121.149 88.7805 118.703 91.793 116.821C94.9308 114.815 98.0694 112.93 101.209 111.174C104.783 109.08 108.239 107.049 111.569 105.076C111.688 105.006 111.805 104.911 111.896 104.811C122.323 93.6005 123.303 93.1738 122.298 94.7422C121.546 95.9158 120.035 100.662 120.035 102.055V132.249C120.035 137.002 119.444 141.325 118.265 145.221C118.091 145.794 118.27 146.411 118.699 146.826C120.167 148.24 121.849 150.453 123.045 152.653V86.1543C123.045 82.7679 122.668 79.6948 121.916 76.9355C121.288 74.0513 119.471 71.7312 116.458 69.9756C113.931 68.439 109.916 67.5738 104.411 67.3818L101.959 67.3379ZM120.224 160.376C120.224 161.155 120.854 161.786 121.636 161.786C122.415 161.786 123.045 161.155 123.045 160.376V159.673C122.364 159.859 121.44 159.85 120.224 159.596V160.376ZM114.495 112.299C114.495 111.184 113.282 110.493 112.321 111.06C109.626 112.652 106.853 114.283 104.004 115.951L103.962 115.979L103.912 116.005C100.872 117.706 97.8266 119.529 94.7783 121.479L94.7295 121.512C92.3834 122.977 90.3522 124.887 88.6348 127.294C87.4225 129.146 86.596 131.855 86.5957 135.82V140.717C86.596 146.281 87.5376 149.097 88.3916 150.292C89.614 152.001 90.8936 152.839 92.2363 153.222C94.603 153.749 96.7067 153.994 98.5684 153.994C103.373 153.994 106.25 152.95 107.936 151.616L107.98 151.584L108.022 151.546C110.139 149.938 111.71 147.703 112.663 144.564L112.684 144.494L112.711 144.418C113.872 140.934 114.495 136.899 114.495 132.249V112.299Z" fill="#142934"/>
<path d="M178.359 61.9531C185.267 61.9531 191.383 62.7914 195.642 65.3398C195.644 65.3407 195.646 65.3408 195.648 65.3408C195.648 65.3408 195.651 65.3421 195.653 65.3428C195.68 65.3596 195.711 65.3768 195.74 65.3936C195.738 65.3938 195.738 65.396 195.738 65.3965C199.699 67.7301 202.593 71.1274 203.658 75.627C203.661 75.6287 203.661 75.6299 203.663 75.6299L203.665 75.6328C204.568 78.9426 204.991 82.5138 204.991 86.3027V166.03C204.991 166.824 204.345 167.468 203.551 167.468H192.415C191.68 167.468 191.087 166.874 191.087 166.141C191.087 165.084 189.901 164.437 188.965 164.929C184.671 167.187 179.754 168.22 174.408 168.22C170.874 168.219 167.29 167.606 163.684 166.452L163.619 166.431C160.165 165.28 157.24 163.232 154.824 160.5C155.497 159.505 155.891 158.307 155.891 157.017V139.212C155.891 135.77 153.099 132.98 149.654 132.98C149.416 132.98 149.181 132.994 148.949 133.021C149.144 128.726 150.217 124.72 152.305 121.141L152.342 121.071L152.392 120.995C154.571 117.512 157.172 114.519 160.217 112.084C163.056 109.789 165.861 107.882 168.626 106.427C171.09 105.073 172.875 104.089 173.979 103.476L173.996 103.466C178.93 100.754 182.594 98.4981 185.083 96.6885C187.553 94.8597 188.98 93.2783 189.734 92.0254C190.427 90.7541 190.9 89.0429 190.9 86.6807V84.0439C190.9 80.3974 190.062 79.1042 189.697 78.7373L189.63 78.6729L189.565 78.6025C188.697 77.6708 187.545 77.0033 185.845 76.6943C183.42 76.2537 180.926 76.0303 178.359 76.0303C173.351 76.0303 170.535 76.9085 169.103 77.8623C167.554 78.9827 166.565 80.3898 166.024 82.2549C165.436 84.7492 165.103 87.6261 165.076 90.9189C165.071 91.2196 164.98 91.5134 164.804 91.7578L159.534 99.0938L153.208 103.189C152.25 103.809 150.986 103.122 150.986 101.981V91.0039C150.986 83.1078 152.533 76.1687 156.263 70.7832C160.74 64.1728 169.032 61.9534 178.359 61.9531ZM199.451 157.739C198.828 158.881 198.161 159.792 197.508 160.288C197.257 160.486 196.912 160.683 196.489 160.878C196.616 161.489 197.156 161.935 197.788 161.935H198.012C198.808 161.934 199.451 161.291 199.451 160.496V157.739ZM156.911 153.439C156.997 153.856 157.14 154.264 157.358 154.675C157.17 154.307 157.024 153.893 156.911 153.439ZM190.9 112.447C190.9 111.333 189.687 110.641 188.729 111.208C186.032 112.8 183.259 114.431 180.41 116.1L180.312 116.153C177.272 117.854 174.227 119.678 171.18 121.628L171.13 121.66C168.794 123.119 166.774 125.018 165.062 127.409C163.838 129.262 163.002 131.979 163.002 135.969V140.865C163.002 146.429 163.937 149.245 164.791 150.44C166.017 152.154 167.302 152.993 168.647 153.375C171.01 153.901 173.116 154.143 174.975 154.143C179.779 154.142 182.651 153.098 184.336 151.765L184.381 151.732L184.423 151.694C186.54 150.086 188.116 147.852 189.069 144.713L189.092 144.643L189.111 144.566C190.273 141.083 190.9 137.048 190.9 132.397V112.447ZM178.359 67.4863C169.576 67.4866 163.736 69.6207 160.85 73.8848C157.963 78.0233 156.523 83.7305 156.523 91.0039V97.6553C156.523 98.4495 157.166 99.0936 157.963 99.0938H159.534L157.695 91.5498C157.668 91.4383 157.653 91.3227 157.653 91.208C157.666 87.4184 158.1 84.9301 158.842 81.8418C159.72 78.7082 161.048 73.8029 163.684 71.9219C166.443 70.0406 172.837 68.2015 178.359 68.2012C181.248 68.2012 183.083 69.6223 185.845 70.124C188.605 70.6255 193.073 71.442 194.83 73.3223C196.714 75.2035 197.311 78.8171 197.312 83.0811V86.3027C197.312 89.4375 197.326 93.2625 196.07 95.5195C196.069 95.5213 196.067 95.5226 196.066 95.5244C197.472 94.2416 198.581 93.369 199.451 92.8125V86.3027C199.451 82.9164 199.074 79.8432 198.322 77.084C197.694 74.1991 195.872 71.8798 192.859 70.124C189.973 68.3679 185.14 67.4863 178.359 67.4863Z" fill="#142934"/>
<path d="M208.48 62.2666C208.481 61.3559 209.317 60.6747 210.21 60.8574L221.322 63.1367C221.712 63.2164 221.995 63.5513 222.01 63.9473C222.035 64.6014 222.757 64.9945 223.34 64.6973C227.413 62.623 232.267 61.7705 237.554 61.7705C243.136 61.7705 248.157 62.5377 252.21 64.4941C252.257 64.5144 252.304 64.5381 252.351 64.5586C252.385 64.5757 252.42 64.5894 252.455 64.6064C256.332 66.3598 259.511 68.9807 261.549 72.6191C261.549 72.6205 261.552 72.6211 261.552 72.6211C261.554 72.6212 261.557 72.6226 261.557 72.624C261.576 72.6564 261.594 72.6891 261.613 72.7217C261.613 72.7226 261.613 72.7236 261.611 72.7236C263.344 75.7455 264.426 79.0489 264.888 82.5752C265.295 85.6945 265.498 88.8201 265.498 91.9453V166.031C265.498 166.825 264.853 167.47 264.059 167.47H252.85C252.053 167.47 251.41 166.825 251.41 166.031V93.6426C251.41 90.1882 251.122 86.8731 250.554 83.6992L250.549 83.667C250.139 81.2936 249.107 79.5528 247.419 78.1709L247.311 78.085L247.208 77.9873C246.123 77.01 243.408 75.8477 237.554 75.8477C231.629 75.8479 228.234 77.4396 226.236 79.6572C223.824 82.3339 222.568 85.5684 222.568 89.6924V166.031C222.568 166.825 221.924 167.47 221.128 167.47H209.92C209.126 167.47 208.481 166.825 208.48 166.031V106.557C210.062 105.629 211.125 103.914 211.125 101.949V82.3643C211.125 80.3992 210.062 78.6825 208.48 77.7549V62.2666ZM237.554 67.3037C231.657 67.304 227.075 68.4937 223.812 70.876C222.027 72.1609 219.81 76.7074 217.979 80.9189C217.336 82.3914 215.43 81.9125 215.579 80.3135L216.529 70.1807C216.599 69.4435 216.018 68.8068 215.276 68.8066C214.581 68.8066 214.018 69.3693 214.018 70.0635V160.497C214.018 161.292 214.663 161.935 215.457 161.936H215.591C216.385 161.936 217.03 161.292 217.03 160.497V89.6924C217.03 84.2994 218.725 79.7177 222.113 75.9551C225.504 72.1925 230.652 70.3137 237.554 70.3135L239.825 70.3682C244.918 70.6291 248.616 71.8014 250.922 73.8857C253.684 76.1428 255.379 79.0905 256.007 82.7266C256.635 86.2384 256.947 89.8797 256.947 93.6426V160.497C256.947 161.292 257.593 161.935 258.387 161.936H258.521C259.316 161.935 259.961 161.292 259.961 160.497V91.9453C259.961 89.0616 259.775 86.1776 259.397 83.2939C259.02 80.4102 258.144 77.7761 256.764 75.3936C255.381 72.885 253.12 70.9372 249.98 69.5576C247.345 68.241 243.845 67.5006 239.479 67.3359L237.554 67.3037Z" fill="#142934"/>
<path d="M373.094 61.9531C380.396 61.9534 386.901 63.6342 392.192 67.4199C392.195 67.4211 392.197 67.4218 392.199 67.4219L392.202 67.4229C392.232 67.4426 392.259 67.4665 392.286 67.4863C392.308 67.5009 392.328 67.5138 392.351 67.5283C392.349 67.5286 392.349 67.5306 392.349 67.5312C398.494 71.7683 401.038 78.5917 401.038 86.4922V101.608C401.038 102.749 399.774 103.436 398.816 102.816L392.487 98.7207L387.102 87.9248C387.002 87.7255 386.951 87.5039 386.948 87.2812C386.886 82.4747 385.521 80.1883 384.002 79.0078L383.91 78.9375L383.823 78.8613C381.937 77.2664 378.656 76.0305 373.094 76.0303C367.743 76.0303 364.325 77.3529 362.121 79.3047C360.029 81.2624 358.86 83.8525 358.86 87.6211V91.0039C358.86 94.1763 359.662 96.1199 360.744 97.3916C362.412 99.3534 364.437 100.992 366.864 102.309C369.788 103.768 372.528 105.104 375.079 106.318C378.991 108.019 382.723 109.918 386.272 112.019C386.272 112.019 386.272 112.019 386.271 112.02C390.361 114.247 393.749 117.237 396.35 120.984C399.566 125.269 400.849 130.728 400.849 136.726V143.875C400.849 149.508 399.623 154.685 396.488 158.735C393.699 162.344 390.073 164.96 385.749 166.561L385.662 166.593L385.575 166.62C381.557 167.959 377.254 168.598 372.717 168.598C365.296 168.598 358.694 166.805 353.365 162.772C347.416 158.267 344.961 151.321 344.961 143.308V127.817C344.961 126.678 346.227 125.991 347.185 126.61L353.512 130.706L358.93 143.031C359.009 143.214 359.048 143.411 359.051 143.61C359.11 147.624 360.354 149.999 362.226 151.57C364.685 153.4 368.043 154.521 372.717 154.521C377.874 154.52 381.331 153.419 383.619 151.786L383.657 151.759L383.694 151.737C385.389 150.569 386.759 148.441 386.762 143.875V136.726C386.762 132.656 385.891 130.305 384.878 128.977L384.841 128.928L384.809 128.88C383.322 126.839 381.416 125.195 379.011 123.945L378.892 123.887L378.772 123.816C375.975 122.186 372.92 120.657 369.597 119.233L369.542 119.212L369.492 119.19C365.501 117.39 361.808 115.574 358.418 113.749C354.598 111.694 351.347 109.112 348.808 105.94L348.716 105.821L348.629 105.697C348.422 105.408 348.226 105.114 348.037 104.815C349.089 103.704 349.736 102.206 349.736 100.556V83.1963C349.736 80.7503 348.319 78.6358 346.26 77.627C347.567 74.222 349.724 71.1885 352.689 68.5947C358.016 63.9375 365.06 61.9531 373.094 61.9531ZM373.094 67.4863C365.941 67.4863 360.352 69.2436 356.336 72.7549C352.318 76.2665 350.312 80.657 350.31 85.9238V92.3223C350.31 96.4609 351.25 99.8477 353.134 102.481C355.142 104.99 357.778 107.124 361.039 108.88C364.303 110.636 367.884 112.392 371.775 114.148C375.287 115.653 378.551 117.284 381.564 119.039C384.702 120.67 387.278 122.867 389.286 125.626C391.294 128.26 392.299 131.961 392.299 136.726V143.875L392.276 144.935C392.063 150.153 390.248 153.941 386.836 156.293C383.322 158.8 378.614 160.054 372.717 160.055C367.068 160.055 362.424 158.674 358.785 155.915C355.489 153.211 353.739 149.348 353.533 144.329L353.512 143.308V130.706H351.94C351.144 130.706 350.501 131.35 350.501 132.145V143.308L350.521 144.577C350.764 150.825 352.829 155.417 356.713 158.357C360.855 161.493 366.189 163.064 372.717 163.064C376.732 163.064 380.435 162.502 383.823 161.373C387.214 160.119 389.976 158.107 392.11 155.348C393.977 152.933 395.029 149.704 395.263 145.658L395.31 143.875V136.726C395.31 131.458 394.18 127.318 391.919 124.308C390.053 121.564 387.658 119.299 384.731 117.516L380.872 115.311C378.259 113.876 375.541 112.545 372.717 111.322C370.081 110.068 367.253 108.693 364.24 107.188C361.23 105.558 358.659 103.487 356.524 100.979C354.39 98.471 353.322 95.143 353.322 91.0039V87.6211C353.322 82.4789 355.018 78.3388 358.405 75.2031C361.92 72.0674 366.819 70.4961 373.094 70.4961L375.377 70.5615C380.537 70.8633 384.548 72.2216 387.404 74.6357C390.792 77.2697 392.487 81.6009 392.487 87.6211V98.7207H394.062C394.856 98.7204 395.501 98.0767 395.501 97.2822V86.4922C395.501 79.7194 393.364 74.8889 389.098 72.0039C385.474 69.3701 380.934 67.8857 375.483 67.5566L373.094 67.4863Z" fill="#142934"/>
<path d="M296.18 61.7656C301.757 61.7656 306.775 62.5341 310.828 64.4883L310.838 64.4902C310.92 64.5259 311.002 64.5649 311.081 64.6016C314.993 66.3715 318.205 69.0226 320.237 72.7148C320.239 72.717 320.237 72.7197 320.234 72.7197C320.232 72.7197 320.23 72.7217 320.231 72.7236C321.964 75.7454 323.052 79.0443 323.511 82.5703C323.918 85.6893 324.124 88.8152 324.124 91.9404V103.107C324.124 104.248 322.857 104.934 321.899 104.314L315.573 100.22L310.304 92.8838C310.13 92.6397 310.036 92.3464 310.031 92.0459C309.999 89.2263 309.674 86.395 309.041 83.5488L308.996 83.3545C308.616 81.3043 307.641 79.6262 305.854 78.166L305.747 78.0801L305.644 77.9824C304.547 76.9914 301.873 75.8428 296.18 75.8428C290.518 75.843 287.691 76.9789 286.428 78.0693L286.321 78.166C284.512 79.6451 283.444 81.371 282.963 83.4785C282.409 86.4969 282.135 89.5058 282.135 92.5078V138.035C282.135 140.894 282.404 143.903 282.963 147.065C283.442 149.16 284.505 150.964 286.331 152.571C287.612 153.611 290.484 154.706 296.18 154.706C301.927 154.706 304.652 153.594 305.757 152.647C307.613 151.039 308.614 149.257 308.996 147.189L309.028 147.038C309.671 144.045 309.997 141.202 310.031 138.507C310.036 138.2 310.133 137.902 310.314 137.655L315.573 130.514L317.739 129.11C317.701 129.38 317.68 129.656 317.68 129.937V148.632C317.68 151.331 319.53 153.598 322.031 154.237C320.684 157.995 318.329 161.209 315.079 163.807C310.445 167.511 303.717 168.783 296.18 168.783C290.407 168.783 285.273 168.058 281.144 166.243L281.02 166.189L280.9 166.13C277.138 164.25 274.029 161.629 271.996 158.121C271.049 156.489 270.295 154.773 269.726 152.984C270.941 151.924 271.711 150.365 271.711 148.626V129.931C271.711 127.486 270.192 125.396 268.047 124.549V91.9404C268.047 88.8152 268.25 85.6893 268.657 82.5703C269.121 79.0181 270.219 75.694 271.974 72.6543C273.999 69.0112 277.126 66.3482 280.978 64.5654C285.162 62.5581 290.365 61.7659 296.18 61.7656ZM296.18 67.2988C290.784 67.2988 286.518 68.0486 283.378 69.5527C280.367 70.9326 278.169 72.8803 276.786 75.3887C275.406 77.7714 274.53 80.4049 274.152 83.2891C273.775 86.1727 273.584 89.0566 273.584 91.9404V138.603C273.584 141.487 273.775 144.434 274.152 147.443C274.53 150.327 275.406 152.961 276.786 155.344C278.169 157.727 280.367 159.675 283.378 161.18C286.518 162.559 290.784 163.25 296.18 163.25C302.054 163.25 306.575 162.4 309.741 160.708C305.571 160.842 300.079 160.239 296.18 160.239C290.029 160.239 285.571 159.109 282.812 156.852C280.049 154.469 278.293 151.581 277.538 148.194C276.91 144.683 276.597 141.296 276.597 138.035V92.5078C276.597 89.1217 276.91 85.7347 277.538 82.3486C278.293 78.9623 280.049 76.1383 282.812 73.8809C285.571 71.4978 290.029 70.3096 296.18 70.3096L298.403 70.3633C303.399 70.6237 307.053 71.7961 309.358 73.8809C312.121 76.1383 313.813 78.9623 314.441 82.3486C315.196 85.7349 315.573 89.1215 315.573 92.5078V100.22H317.145C317.941 100.22 318.584 99.5756 318.584 98.7812V91.9404C318.584 89.0568 318.398 86.1727 318.023 83.2891C317.646 80.4046 316.764 77.7717 315.382 75.3887C314.002 72.8803 311.746 70.9326 308.606 69.5527C305.971 68.2361 302.469 67.4967 298.105 67.332L296.18 67.2988Z" fill="#142934"/>
<path d="M137.509 131.182C137.509 128.126 135.03 125.648 131.971 125.648C128.913 125.648 126.434 128.126 126.434 131.182V147.783C126.434 150.839 128.913 153.316 131.971 153.316C135.03 153.316 137.509 150.839 137.509 147.783V131.182Z" fill="#142934"/>
<path d="M66.979 100.97C66.979 104.026 69.4584 106.504 72.5169 106.504C75.5753 106.504 78.0547 104.026 78.0547 100.97V84.3698C78.0547 81.3137 75.5753 78.8363 72.5169 78.8363C69.4584 78.8363 66.979 81.3137 66.979 84.3698V100.97Z" fill="#142934"/>
<path d="M154.115 139.659C154.115 136.602 151.635 134.125 148.577 134.125C145.518 134.125 143.039 136.602 143.039 139.659V156.259C143.039 159.315 145.518 161.793 148.577 161.793C151.635 161.793 154.115 159.315 154.115 156.259V139.659Z" fill="#142934"/>
<path d="M209.494 84.2523C209.494 81.1962 207.014 78.7188 203.956 78.7188C200.897 78.7188 198.418 81.1962 198.418 84.2523V100.853C198.418 103.909 200.897 106.386 203.956 106.386C207.014 106.386 209.494 103.909 209.494 100.853V84.2523Z" fill="#142934"/>
<path d="M270.419 131.131C270.419 128.075 267.94 125.598 264.882 125.598C261.823 125.598 259.344 128.075 259.344 131.131V147.732C259.344 150.788 261.823 153.265 264.882 153.265C267.94 153.265 270.419 150.788 270.419 147.732V131.131Z" fill="#142934"/>
<path d="M348.404 83.6937C348.404 80.6376 345.924 78.1602 342.866 78.1602C339.807 78.1602 337.328 80.6376 337.328 83.6937V100.294C337.328 103.35 339.807 105.828 342.866 105.828C345.924 105.828 348.404 103.35 348.404 100.294V83.6937Z" fill="#142934"/>
<path d="M319.088 147.779C319.088 150.835 321.568 153.312 324.626 153.312C327.685 153.312 330.164 150.835 330.164 147.779V131.178C330.164 128.122 327.685 125.645 324.626 125.645C321.568 125.645 319.088 128.122 319.088 131.178V147.779Z" fill="#142934"/>
</svg>
